<svg class="icon" viewBox="0 0 1024 1024" xmlns="http://www.w3.org/2000/svg" width="200" height="200"><path d="M734.2 1012.5a1.5 1.5 0 0 0 0 3 1.5 1.5 0 0 0 0-3zM356 304h376a4 4 0 0 0 4-4v-56a4 4 0 0 0-4-4H356a4 4 0 0 0-4 4v56a4 4 0 0 0 4 4zm0 136h312a4 4 0 0 0 4-4v-56a4 4 0 0 0-4-4H356a4 4 0 0 0-4 4v56a4 4 0 0 0 4 4zm0 136h248a4 4 0 0 0 4-4v-56a4 4 0 0 0-4-4H356a4 4 0 0 0-4 4v56a4 4 0 0 0 4 4zM840 96H248a40 40 0 0 0-40 40v512h-56a40 40 0 0 0-40 40v200a40 40 0 0 0 40 40h688a40 40 0 0 0 40-40V136a40 40 0 0 0-40-40zM656 856H184V720h472zm152 0h-40a40 40 0 0 1-40-40V688a40 40 0 0 0-40-40H280V168h528z"/></svg>