<svg class="icon" viewBox="0 0 1024 1024" xmlns="http://www.w3.org/2000/svg" width="200" height="200"><path d="M515.05 702.48c-6.74 0-13.49-2.57-18.63-7.72L335.34 533.68c-10.29-10.29-10.29-26.97 0-37.26L746.25 85.51c20.54-20.54 53.97-20.55 74.53 0L944.6 209.33c20.55 20.55 20.55 53.97 0 74.52L533.68 694.76a26.284 26.284 0 0 1-18.63 7.72zM391.24 515.05l123.81 123.81 392.28-392.28-123.82-123.81-392.27 392.28z"/><path d="M303.35 772.02c-11.8 0-23.27-4.63-31.95-13.31-12.22-12.22-16.42-30-10.96-46.39l68.54-205.6a26.33 26.33 0 0 1 18.95-17.31c8.87-2.12 18.22.55 24.68 7.01L533.68 657.5a26.295 26.295 0 0 1 7.01 24.68 26.366 26.366 0 0 1-17.31 18.95l-205.6 68.54c-4.75 1.57-9.62 2.35-14.43 2.35zm62.14-208.19L315.09 715l151.17-50.4-100.77-100.77z"/><path d="M762.19 953.9H143.74C99.77 953.9 64 918.13 64 874.16V255.71c0-43.97 35.77-79.74 79.74-79.74H666.7c10.66 0 20.26 6.42 24.34 16.27a26.33 26.33 0 0 1-5.71 28.71L377 529.29l-61.91 185.72 185.72-61.91 296.14-296.14c7.53-7.54 18.87-9.8 28.71-5.71a26.341 26.341 0 0 1 16.27 24.34v498.57c0 43.97-35.77 79.74-79.74 79.74zM143.74 228.67c-14.91 0-27.04 12.13-27.04 27.04v618.45c0 14.91 12.13 27.04 27.04 27.04h618.45c14.91 0 27.04-12.13 27.04-27.04V439.21L533.68 694.76a26.265 26.265 0 0 1-10.3 6.37l-205.6 68.54c-16.43 5.46-34.18 1.25-46.39-10.96-12.22-12.22-16.42-30-10.96-46.39l68.54-205.6a26.15 26.15 0 0 1 6.37-10.3l267.75-267.75H143.74zm371.31 447.46h.13-.13z"/></svg>