<svg class="icon" viewBox="0 0 1024 1024" xmlns="http://www.w3.org/2000/svg" width="200" height="200"><path d="M591.99 0v73.143a438.855 438.855 0 0 1 359.314 359.495H591.808V0m0 0a73.143 73.143 0 0 0-73.143 73.143v359.495a73.143 73.143 0 0 0 73.143 73.143h359.496a73.143 73.143 0 0 0 72.045-85.211A511.998 511.998 0 0 0 603.877 1.097 73.143 73.143 0 0 0 591.808 0z"/><path d="M384.449 189.988v340.295a109.714 109.714 0 0 0 109.714 109.714h340.295a385.095 385.095 0 0 1-376.867 310.856 399.358 399.358 0 0 1-64-5.303 383.998 383.998 0 0 1-9.142-755.562m1.097-73.143a86.674 86.674 0 0 0-13.531 1.28 457.14 457.14 0 0 0 9.691 900.02 468.478 468.478 0 0 0 75.885 5.85 460.067 460.067 0 0 0 449.096-371.564 73.143 73.143 0 0 0-73.143-85.576H494.163a36.571 36.571 0 0 1-36.572-36.572V189.988a73.143 73.143 0 0 0-72.045-73.143z"/></svg>