<svg class="icon" viewBox="0 0 1024 1024" xmlns="http://www.w3.org/2000/svg" width="200" height="200"><path d="m993.311 624.247-94.12-73.599c1.238-11.35 2.218-24.617 2.218-38.655s-1.024-27.306-2.218-38.655l94.206-73.641c17.494-13.824 22.314-38.358 11.136-58.794l-97.876-169.341c-10.71-19.498-34.73-28.416-56.618-20.352l-111.06 44.585c-21.248-15.36-43.562-28.33-66.645-38.697l-16.896-117.8C652.666 16.895 633.21 0 610.213 0H413.949c-22.997 0-42.453 16.896-45.183 38.87l-16.938 118.228c-22.358 10.112-44.33 22.87-66.559 38.741l-111.358-44.713c-21.29-8.32-45.526.47-56.192 20.01L19.715 340.733c-11.562 19.542-6.826 44.886 11.094 59.05l94.12 73.557c-1.494 14.421-2.218 26.921-2.218 38.655s.726 24.234 2.134 38.655L30.64 624.335c-17.452 13.822-22.232 38.354-11.096 58.792l97.876 169.341c10.624 19.456 34.602 28.33 56.618 20.352l111.06-44.585c21.248 15.317 43.606 28.287 66.687 38.697l16.896 117.759c2.774 22.4 22.23 39.295 45.225 39.295H610.17c22.997 0 42.453-16.896 45.183-38.87l16.938-118.184c22.358-10.112 44.33-22.87 66.559-38.741l111.358 44.713c21.206 8.234 45.526-.47 56.192-20.01l98.388-170.195c10.882-19.966 6.102-44.5-11.476-58.452zm-25.813 37.546-101.63 171.432-122.153-49.066c-6.912-2.774-14.762-1.706-20.736 2.73-26.454 19.798-52.01 34.688-78.207 45.398a21.32 21.32 0 0 0-13.056 16.725l-21.545 132.309-199.124-2.262-18.645-130.005a21.41 21.41 0 0 0-13.056-16.725c-27.264-11.178-53.503-26.41-78.037-45.27a21.246 21.246 0 0 0-13.014-4.438c-2.688 0-5.376.47-7.978 1.536L154.665 831.56 56.788 662.217c-.896-1.664-.726-3.584.298-4.394l103.55-80.937a21.378 21.378 0 0 0 8.023-19.456c-2.262-17.877-3.286-32.341-3.286-45.439s1.066-27.52 3.286-45.44a21.338 21.338 0 0 0-8.022-19.455L56.578 362.235l101.63-171.432 122.153 49.066c6.954 2.816 14.762 1.75 20.778-2.73 26.41-19.84 52.01-34.688 78.207-45.398a21.406 21.406 0 0 0 13.014-16.725l21.59-132.35 199.165 2.303 18.601 130.047a21.41 21.41 0 0 0 13.056 16.725c27.222 11.136 53.461 26.368 78.037 45.27 6.016 4.608 13.91 5.718 20.95 2.858l125.652-47.402 97.877 169.342c.896 1.664.726 3.542-.298 4.352l-103.55 80.937a21.338 21.338 0 0 0-8.023 19.456c1.622 12.97 3.286 28.543 3.286 45.439 0 16.938-1.664 32.47-3.286 45.44a21.378 21.378 0 0 0 8.022 19.455l103.423 80.895c1.106.896 1.32 2.816.636 4.01z"/><path d="M512.038 298.662c-117.63 0-213.331 95.7-213.331 213.331s95.7 213.331 213.331 213.331 213.331-95.7 213.331-213.331-95.7-213.331-213.331-213.331zm0 383.995c-94.12 0-170.664-76.543-170.664-170.664s76.543-170.664 170.664-170.664 170.664 76.543 170.664 170.664-76.543 170.664-170.664 170.664z"/></svg>